<svg width="842" height="842" viewBox="0 0 842 842" fill="none" xmlns="http://www.w3.org/2000/svg">
<path fill-rule="evenodd" clip-rule="evenodd" d="M46.556 842H794.114C820.717 842 842 820.717 842 794.114V46.5561C842 21.2828 820.717 0 794.114 0H308.6C138.338 0 -3.64997e-05 138.338 -3.64997e-05 308.6V794.114C-3.64997e-05 820.717 21.2827 842 46.556 842ZM224.799 497.485H536.06C541.381 497.485 545.371 509.457 545.371 525.419C545.371 540.051 541.381 552.022 536.06 552.022H224.799V661.096C224.799 666.417 212.828 670.408 198.196 670.408C183.564 670.408 170.262 666.417 170.262 661.096V377.769V371.222C170.262 364.568 170.262 359.94 170.262 355.156V344.689V334.886C170.262 290.991 195.536 244.752 231.45 214.158C258.054 191.545 301.949 170.262 336.534 170.262H661.096C666.417 170.262 670.408 183.564 670.408 198.196C670.408 212.828 666.417 224.799 661.096 224.799H357.817C287.317 224.799 226.13 281.997 224.799 355.156C224.799 355.156 224.799 356.487 224.799 357.817V365.798C224.799 368.458 224.799 369.788 224.799 372.449V391.071V497.485ZM659.766 339.194C665.087 339.194 669.077 327.223 669.077 311.261C669.077 296.629 665.087 284.657 659.766 284.657H469.551H466.891H464.231H462.9H379.099C323.232 284.657 284.657 329.883 284.657 380.43C284.657 403.043 284.657 421.665 284.657 444.278V445.608H312.591H337.864H344.515C348.505 445.608 352.496 445.608 355.156 445.608C363.137 445.608 372.449 445.608 381.76 445.608C387.081 445.608 393.731 445.608 415.014 445.608H529.409C563.994 445.608 606.559 482.853 606.559 517.438V533.4C606.559 567.984 570.644 606.559 525.419 606.559L284.657 607.889C279.336 607.889 275.346 619.861 275.346 634.493C275.346 649.125 279.336 661.096 284.657 661.096H522.758C594.588 661.096 661.096 605.229 661.096 528.079V526.749C661.096 445.608 599.908 392.401 516.107 392.401H425.656H420.335H415.014H339.194C339.194 383.09 339.194 375.109 341.855 368.458C345.845 353.826 355.156 345.845 365.798 341.855C375.109 337.864 379.099 339.194 388.411 339.194H434.967H437.627C438.957 339.194 441.618 339.194 444.278 339.194H460.24H461.57H462.9H465.561H466.891H469.551H492.164H659.766Z" fill="#4ACCD4"/>
</svg>
